<?xml version="1.0" standalone="no"?>
<!DOCTYPE svg PUBLIC "-//W3C//DTD SVG 20010904//EN"
 "http://www.w3.org/TR/2001/REC-SVG-20010904/DTD/svg10.dtd">
<svg version="1.0" xmlns="http://www.w3.org/2000/svg"
 width="512.000000pt" height="512.000000pt" viewBox="0 0 512.000000 512.000000"
 preserveAspectRatio="xMidYMid meet">

<g transform="translate(0.000000,512.000000) scale(0.100000,-0.100000)"
fill="#000000" stroke="none">
<path d="M2170 4730 l0 -390 390 0 390 0 0 390 0 390 -390 0 -390 0 0 -390z"/>
<path d="M1085 4028 c-3 -7 -4 -184 -3 -393 l3 -380 393 -3 392 -2 -2 392 -3
393 -388 3 c-305 2 -389 0 -392 -10z"/>
<path d="M2170 3645 l0 -395 390 0 390 0 0 395 0 395 -390 0 -390 0 0 -395z"/>
<path d="M3250 3645 l0 -395 393 2 392 3 0 390 0 390 -392 3 -393 2 0 -395z"/>
<path d="M0 2560 l0 -390 390 0 390 0 0 390 0 390 -390 0 -390 0 0 -390z"/>
<path d="M1080 2560 l0 -390 395 0 395 0 0 390 0 390 -395 0 -395 0 0 -390z"/>
<path d="M2170 2560 l0 -390 390 0 390 0 0 390 0 390 -390 0 -390 0 0 -390z"/>
<path d="M3250 2560 l0 -390 395 0 395 0 0 390 0 390 -395 0 -395 0 0 -390z"/>
<path d="M4340 2560 l0 -390 390 0 390 0 0 390 0 390 -390 0 -390 0 0 -390z"/>
<path d="M1085 1857 c-3 -6 -4 -183 -3 -392 l3 -380 390 0 390 0 3 393 2 392
-390 0 c-304 0 -392 -3 -395 -13z"/>
<path d="M2170 1475 l0 -395 390 0 390 0 0 395 0 395 -390 0 -390 0 0 -395z"/>
<path d="M3250 1475 l0 -395 393 2 392 3 0 390 0 390 -392 3 -393 2 0 -395z"/>
<path d="M2170 390 l0 -390 390 0 390 0 0 390 0 390 -390 0 -390 0 0 -390z"/>
</g>
</svg>
